<svg xmlns="http://www.w3.org/2000/svg" viewBox="0 0 128 128">
  <defs>
    <radialGradient id="bg" cx="50%" cy="42%" r="72%">
      <stop offset="0" stop-color="#111827"/>
      <stop offset="1" stop-color="#080f1a"/>
    </radialGradient>
    <linearGradient id="ring" x1="18" y1="34" x2="110" y2="94" gradientUnits="userSpaceOnUse">
      <stop stop-color="#00d1ff"/>
      <stop offset="0.5" stop-color="#3b82f6"/>
      <stop offset="1" stop-color="#ff5ce0"/>
    </linearGradient>
    <filter id="glow" x="-30%" y="-30%" width="160%" height="160%">
      <feGaussianBlur stdDeviation="3" result="blur"/>
      <feMerge>
        <feMergeNode in="blur"/>
        <feMergeNode in="SourceGraphic"/>
      </feMerge>
    </filter>
  </defs>
  <rect width="128" height="128" rx="30" fill="url(#bg)"/>
  <g fill="none" stroke="url(#ring)" stroke-linecap="round" filter="url(#glow)">
    <circle cx="64" cy="64" r="38" stroke-width="5"/>
    <circle cx="64" cy="64" r="29" stroke-width="2.2" opacity="0.72"/>
    <path d="M31 53C43 31 77 28 98 50" stroke-width="2.1" opacity="0.82"/>
    <path d="M30 75C44 96 80 98 99 76" stroke-width="2.1" opacity="0.82"/>
    <path d="M38 38C56 59 72 67 91 92" stroke-width="1.8" opacity="0.64"/>
    <path d="M37 91C55 69 76 59 91 37" stroke-width="1.8" opacity="0.64"/>
    <path d="M50 30C45 51 45 76 53 98" stroke-width="1.5" opacity="0.58"/>
    <path d="M78 30C84 50 84 76 75 98" stroke-width="1.5" opacity="0.58"/>
  </g>
  <g>
    <circle cx="30" cy="64" r="7" fill="#00d1ff"/>
    <circle cx="39" cy="41" r="5.6" fill="#19c8ff"/>
    <circle cx="56" cy="29" r="5.4" fill="#2f8cff"/>
    <circle cx="78" cy="31" r="5.4" fill="#7b61ff"/>
    <circle cx="96" cy="45" r="6" fill="#b43cff"/>
    <circle cx="103" cy="66" r="6.7" fill="#d946ef"/>
    <circle cx="94" cy="88" r="5.8" fill="#b43cff"/>
    <circle cx="75" cy="99" r="5.4" fill="#7b61ff"/>
    <circle cx="52" cy="97" r="5.3" fill="#3b82f6"/>
    <circle cx="36" cy="83" r="5.8" fill="#00d1ff"/>
    <circle cx="64" cy="64" r="4.5" fill="#ffffff" opacity="0.92"/>
  </g>
</svg>
